<?xml version="1.0" encoding="UTF-8"?>
<svg version="1.1" xmlns="http://www.w3.org/2000/svg" width="736" height="552">
<path d="M0 0 C242.88 0 485.76 0 736 0 C736 182.16 736 364.32 736 552 C493.12 552 250.24 552 0 552 C0 369.84 0 187.68 0 0 Z " fill="#231F20" transform="translate(0,0)"/>
<path d="M0 0 C8.86182477 6.50560157 14.15111013 15.05623178 19.25 24.625 C19.89587314 25.81513901 20.54303835 27.00457763 21.19140625 28.19335938 C22.53248274 30.65456824 23.8680485 33.11864461 25.19970703 35.58496094 C28.31059277 41.33523079 31.50387987 47.03979674 34.6875 52.75 C35.93787356 54.99979243 37.18787269 57.24979299 38.4375 59.5 C39.05625 60.61375 39.675 61.7275 40.3125 62.875 C45.9375 73 45.9375 73 47.81298828 76.37597656 C49.06125009 78.62278279 50.30962224 80.86952773 51.55810547 83.11621094 C54.71061379 88.78957447 57.86111316 94.46403722 61.0078125 100.140625 C62.27589436 102.42716503 63.5441227 104.71362384 64.8125 107 C65.43278076 108.11826172 66.05306152 109.23652344 66.69213867 110.38867188 C70.2145098 116.72921752 73.76848424 123.05043677 77.35400391 129.35546875 C81.99307232 137.51340336 86.55956354 145.69841868 90.9375 154 C91.35620361 154.79277344 91.77490723 155.58554687 92.20629883 156.40234375 C97.54451753 166.61989554 97.70117946 178.46536279 95.50390625 189.765625 C94.58804431 192.4258049 93.5435164 194.78720386 92.1875 197.25 C91.76339844 198.03246094 91.33929688 198.81492187 90.90234375 199.62109375 C84.86839921 209.58802721 75.96067601 216.04831597 65.1875 220.25 C52.44896425 223.11180803 39.6359095 222.20251591 28.35546875 215.58984375 C21.26326925 210.86494477 16.87579856 205.26745328 12.1875 198.25 C5.37844998 188.82662925 -0.77542443 182.18748397 -12.41796875 179.69140625 C-16.97620223 179.09867854 -21.47017589 179.02612987 -26.0625 179 C-26.95324219 178.979375 -27.84398437 178.95875 -28.76171875 178.9375 C-39.76864733 178.87359911 -48.50305641 181.97583135 -56.8125 189.25 C-60.30581299 193.06653768 -63.33896381 197.16724989 -66.32421875 201.38671875 C-73.88437166 211.92950733 -83.01812149 218.41299218 -95.8125 221.25 C-109.5564231 222.21207462 -120.8699347 221.01076542 -131.94140625 211.96484375 C-138.94500898 205.54609302 -143.51069551 199.19294415 -146.8125 190.25 C-147.18181641 189.25033203 -147.18181641 189.25033203 -147.55859375 188.23046875 C-151.0230719 176.8813162 -148.9735785 165.12948908 -143.52734375 154.81640625 C-136.98938468 144.30832161 -127.95239362 136.20267706 -115.89672852 132.69213867 C-112.30869735 131.93099021 -108.7174445 132.06548607 -105.0625 132.0625 C-104.2890625 132.05025391 -103.515625 132.03800781 -102.71875 132.02539062 C-90.84766753 131.99551374 -80.4885961 136.18267668 -71.7421875 144.2265625 C-69.59499597 146.47807103 -67.7130961 148.84985991 -65.8125 151.3125 C-60.81211153 157.75417691 -55.76465057 162.07680199 -47.8125 164.25 C-40.40125627 165.0667844 -33.51593721 165.38754796 -27.36328125 160.75 C-22.99653252 156.52624304 -20.71701041 151.95459236 -20.3125 145.9375 C-20.44109894 138.47876138 -24.22004907 132.55566171 -27.8125 126.25 C-28.2254834 125.51974609 -28.6384668 124.78949219 -29.06396484 124.03710938 C-30.95412768 120.70193833 -32.85460963 117.37298726 -34.77001953 114.05224609 C-39.96866429 105.03626978 -44.99017008 95.92553104 -50.00268555 86.80541992 C-50.67626212 85.57991129 -51.349846 84.35440668 -52.0234375 83.12890625 C-52.35005875 82.53448227 -52.67667999 81.94005829 -53.01319885 81.32762146 C-54.96401722 77.78083299 -56.93075575 74.24355882 -58.9140625 70.71484375 C-59.59637939 69.49897583 -59.59637939 69.49897583 -60.29248047 68.25854492 C-61.09810437 66.82586006 -61.90667475 65.39482486 -62.71923828 63.96606445 C-70.10249026 50.81705135 -73.4278357 38.56877492 -69.25 23.5 C-65.30310885 12.14233771 -57.55307807 3.28383103 -47.375 -3.0625 C-31.03051964 -10.80462228 -15.36389904 -9.38613627 0 0 Z " fill="#F1F1F1" transform="translate(393.8125,161.75)"/>
<path d="M0 0 C4.99275057 1.27721526 7.57611908 3.17330957 11 7 C10.67 7.99 10.34 8.98 10 10 C10 10.33 10 10.66 10 11 C9.01 11.495 9.01 11.495 8 12 C7.34 11.67 6.68 11.34 6 11 C6 9.68 6 8.36 6 7 C4.34822227 5.34822227 2.15144042 4.82747709 0 4 C0 2.68 0 1.36 0 0 Z " fill="#E8E6E7" transform="translate(307,297)"/>
<path d="M0 0 C1.98 0.66 3.96 1.32 6 2 C6.33 1.34 6.66 0.68 7 0 C9 2 9 2 9.125 5.125 C9.08375 6.07375 9.0425 7.0225 9 8 C7.67968405 7.43457996 6.3688699 6.84693528 5.0625 6.25 C3.96615234 5.76273437 3.96615234 5.76273437 2.84765625 5.265625 C1 4 1 4 0.24609375 1.859375 C0.16488281 1.24578125 0.08367187 0.6321875 0 0 Z " fill="#E7E6E6" transform="translate(262,371)"/>
<path d="M0 0 C1.65 0.33 3.3 0.66 5 1 C5 1.99 5 2.98 5 4 C-0.2734375 7.22265625 -0.2734375 7.22265625 -2 8 C-2.66 7.67 -3.32 7.34 -4 7 C-3.67 5.68 -3.34 4.36 -3 3 C-2.34 3.33 -1.68 3.66 -1 4 C-0.67 2.68 -0.34 1.36 0 0 Z " fill="#EAE9EA" transform="translate(469,370)"/>
<path d="M0 0 C0.99 0.33 1.98 0.66 3 1 C2.43454163 4.95820859 1.19097652 7.6659053 -1 11 C-2.55136786 8.53606281 -3.03039129 7.31910854 -2.75 4.375 C-2 2 -2 2 0 0 Z " fill="#292526" transform="translate(252,306)"/>
<path d="M0 0 C5.28 0 10.56 0 16 0 C16 0.66 16 1.32 16 2 C10.47032059 2.71033431 5.50016964 3.30267176 0 2 C0 1.34 0 0.68 0 0 Z " fill="#DDDBDC" transform="translate(360,154)"/>
<path d="M0 0 C0.99 1.32 1.98 2.64 3 4 C2.3125 5.9375 2.3125 5.9375 1 8 C-1.625 8.75 -1.625 8.75 -4 9 C-2.25 2.25 -2.25 2.25 0 0 Z " fill="#292526" transform="translate(333,229)"/>
<path d="M0 0 C0 0.66 0 1.32 0 2 C-0.99 2.66 -1.98 3.32 -3 4 C-2.01 5.32 -1.02 6.64 0 8 C-5.41538462 8.36923077 -5.41538462 8.36923077 -8.375 6.5 C-8.91125 6.005 -9.4475 5.51 -10 5 C-8.71186658 4.16121545 -7.41936744 3.32913217 -6.125 2.5 C-5.40570313 2.0359375 -4.68640625 1.571875 -3.9453125 1.09375 C-2 0 -2 0 0 0 Z " fill="#312E2F" transform="translate(349,343)"/>
<path d="M0 0 C5.75 1.75 5.75 1.75 8 4 C7.67 4.66 7.34 5.32 7 6 C4.03 5.505 4.03 5.505 1 5 C1 4.34 1 3.68 1 3 C0.34 2.67 -0.32 2.34 -1 2 C-0.67 1.34 -0.34 0.68 0 0 Z " fill="#2D292A" transform="translate(422,377)"/>
<path d="M0 0 C1.9375 0.3125 1.9375 0.3125 4 1 C4.33 1.99 4.66 2.98 5 4 C6.32 3.67 7.64 3.34 9 3 C9 4.65 9 6.3 9 8 C5.8585564 6.16749123 2.77397973 4.36301977 0 2 C0 1.34 0 0.68 0 0 Z " fill="#E6E5E5" transform="translate(414,369)"/>
<path d="M0 0 C0.71929687 0.29003906 1.43859375 0.58007812 2.1796875 0.87890625 C2.90414063 1.16636719 3.62859375 1.45382812 4.375 1.75 C4.92929687 1.97816406 5.48359375 2.20632813 6.0546875 2.44140625 C5.7246875 3.10140625 5.3946875 3.76140625 5.0546875 4.44140625 C1.6796875 4.12890625 1.6796875 4.12890625 -1.9453125 3.44140625 C-2.6053125 2.45140625 -3.2653125 1.46140625 -3.9453125 0.44140625 C-1.9453125 -0.55859375 -1.9453125 -0.55859375 0 0 Z " fill="#292727" transform="translate(270.9453125,378.55859375)"/>
<path d="M0 0 C2.52588702 2.36292656 3.88820837 3.66462511 5 7 C4.01 8.32 3.02 9.64 2 11 C1.34 7.37 0.68 3.74 0 0 Z " fill="#E8E6E7" transform="translate(474,299)"/>
<path d="M0 0 C2.32472205 2.85306797 3.7508258 5.54074837 5 9 C3.02 8.01 1.04 7.02 -1 6 C-0.67 4.02 -0.34 2.04 0 0 Z " fill="#333031" transform="translate(347,254)"/>
<path d="M0 0 C1 3 1 3 0.1875 5.0625 C-1 7 -1 7 -3 9 C-4.32 8.67 -5.64 8.34 -7 8 C-4.69 5.36 -2.38 2.72 0 0 Z " fill="#3C393A" transform="translate(326,364)"/>
<path d="M0 0 C0.66 0.99 1.32 1.98 2 3 C1.67 3.66 1.34 4.32 1 5 C0.95977609 7.3329866 0.95679753 9.66706666 1 12 C0.67 11.01 0.34 10.02 0 9 C-0.66 8.67 -1.32 8.34 -2 8 C-1.47731534 5.23723823 -0.89130413 2.6739124 0 0 Z " fill="#EAE7E8" transform="translate(373,312)"/>
<path d="M0 0 C0.99 0 1.98 0 3 0 C3.33 1.65 3.66 3.3 4 5 C4.99 5.33 5.98 5.66 7 6 C6.34 7.32 5.68 8.64 5 10 C3.35 6.7 1.7 3.4 0 0 Z " fill="#E0DEDF" transform="translate(356,270)"/>
<path d="M0 0 C1.73543126 2.60314689 2.61121812 3.98694043 3 7 C2.34 7.66 1.68 8.32 1 9 C-1 6 -1 6 -0.625 2.8125 C-0.41875 1.884375 -0.2125 0.95625 0 0 Z " fill="#343031" transform="translate(325,213)"/>
<path d="M0 0 C0.99 1.32 1.98 2.64 3 4 C1.68 4.99 0.36 5.98 -1 7 C-1.5534764 4.92446352 -2 3.15634036 -2 1 C-1.34 0.67 -0.68 0.34 0 0 Z " fill="#312E2F" transform="translate(366,288)"/>
<path d="M0 0 C0.66 0.33 1.32 0.66 2 1 C1.34 3.31 0.68 5.62 0 8 C-0.99 7.01 -1.98 6.02 -3 5 C-2.34 4.67 -1.68 4.34 -1 4 C-0.34786708 1.97536745 -0.34786708 1.97536745 0 0 Z " fill="#302C2D" transform="translate(325,179)"/>
</svg>
